<svg width="15" height="16" viewBox="0 0 15 16" fill="none" xmlns="http://www.w3.org/2000/svg">
<path fill-rule="evenodd" clip-rule="evenodd" d="M14.893 2.56402C14.893 2.5425 14.8714 2.52181 14.8714 2.52181L14.8506 2.50028C14.8506 2.48693 14.8423 2.48186 14.831 2.47499C14.8242 2.47079 14.8161 2.46592 14.8083 2.45807L14.7651 2.41503L11.4253 0.0840896C11.3189 -0.000341166 11.1485 -0.000341166 11.0422 0.0840896L7.8511 2.24529L4.76724 0.0633231C4.66087 -0.0211077 4.49051 -0.0211077 4.38414 0.0633231L1.04436 2.39426C1.03345 2.39426 1.02805 2.39975 1.0227 2.40518C1.01745 2.41051 1.01226 2.41578 1.00197 2.41578C1.00197 2.41578 0.980369 2.41578 0.980369 2.4373C0.969765 2.44786 0.959362 2.46341 0.948963 2.47895C0.938171 2.49508 0.927384 2.51119 0.916381 2.52173V2.54325C0.894775 2.58547 0.894775 2.62769 0.894775 2.67073V13.3297C0.894775 13.4356 0.958763 13.5416 1.04353 13.6053L4.38331 15.9363H4.40491L4.42652 15.9578H4.44813C4.49051 15.9793 4.53289 16 4.59688 16C4.64018 16 4.66369 15.9901 4.69419 15.9774C4.70877 15.9713 4.72494 15.9645 4.74563 15.9578H4.76723C4.76723 15.9578 4.78884 15.9578 4.78884 15.9363H4.81045L7.95834 13.7312L11.1071 15.9346H11.1279L11.1495 15.9561H11.1711C11.2134 15.9776 11.2558 15.9983 11.3198 15.9983C11.35 15.9983 11.3803 15.9874 11.4183 15.9736L11.4184 15.9736C11.4337 15.968 11.4502 15.962 11.4686 15.9561H11.4902C11.4902 15.9561 11.5118 15.9561 11.5118 15.9346H11.5334L14.8732 13.6036L14.8948 13.5821L14.893 2.56402ZM1.57607 3.32636L3.98023 5.00006L1.57607 6.67376V3.32636ZM1.57607 13.1593L4.2353 15.0027V9.83184L3.25636 9.15392L1.57607 7.98845V13.1593ZM10.9148 15.0242L8.25562 13.1809V7.98837L10.9148 9.85329V15.0242ZM13.9787 7.33194L11.0427 5.27664H11.0426C10.957 5.2129 10.893 5.10695 10.893 5.001C10.893 4.89504 10.957 4.78909 11.0417 4.72535L13.9778 2.67006L11.2339 0.762929L8.04277 2.92413C7.9364 3.00856 7.76604 3.00856 7.65967 2.92413L4.57496 0.762081L1.83106 2.66921L4.76707 4.72451C4.85183 4.78825 4.91582 4.89419 4.91582 5.00015C4.91582 5.10611 4.85183 5.21206 4.76707 5.27579L1.83106 7.33109L4.42626 9.1538L4.57501 9.25975L7.68057 7.05638H7.70217C7.70217 7.03486 7.72378 7.03486 7.72378 7.03486H7.74289C7.74289 7.01334 7.7645 7.01334 7.7645 7.01334H7.7861H7.82849H7.87087H7.89247H7.91408H7.95646H7.99884H8.02045C8.02045 7.03486 8.04205 7.03486 8.04205 7.03486H8.06366C8.06366 7.05638 8.08527 7.05638 8.08527 7.05638H8.10687L11.2348 9.2606L11.3835 9.15464L13.9787 7.33194Z" fill="url(#paint0_linear)"/>
<defs>
<linearGradient id="paint0_linear" x1="7.89478" y1="0" x2="7.89478" y2="16" gradientUnits="userSpaceOnUse">
<stop stop-color="#943BF3"/>
<stop offset="1" stop-color="#5327EE"/>
</linearGradient>
</defs>
</svg>
