<svg width="741" height="598" viewBox="0 0 741 598" fill="none" xmlns="http://www.w3.org/2000/svg">
<path d="M473.949 528.307C468.828 521.135 461.895 515.888 453.178 513.924C445.578 512.211 437.762 512.503 430.036 512.563L332.344 513.316C323.977 513.381 315.955 520.629 316.344 529.316C316.73 537.93 323.376 545.385 332.344 545.316C360.961 545.095 389.578 544.875 418.195 544.654C424.941 544.602 431.692 544.48 438.439 544.502C439.954 544.507 441.463 544.587 442.977 544.604C443.343 544.609 443.608 544.605 443.795 544.597C443.842 544.612 443.881 544.625 443.942 544.642C444.732 544.858 445.542 545.008 446.336 545.214C446.058 545.222 446.852 545.717 447.25 545.885C447.305 545.993 447.421 546.184 447.616 546.48C447.888 546.99 448.693 548.539 448.727 548.49C449.936 551.549 450.934 554.687 451.713 557.883C453.573 564.93 453.981 566.403 454.249 573.015C454.587 581.367 461.366 589.412 470.249 589.015C478.628 588.639 486.612 581.972 486.249 573.015C485.638 557.92 482.988 540.965 473.949 528.307Z" fill="#666666"/>
<path d="M338.087 564.413C336.252 553.293 334.452 542.166 332.581 531.053C330.683 519.779 326.807 509.455 318.033 502.055C315.689 500.079 313.258 498.233 310.817 496.393C309.959 495.746 309.102 495.098 308.254 494.437C308.203 494.398 308.171 494.373 308.127 494.339C308.034 494.258 307.922 494.163 307.772 494.036C304.115 490.941 300.582 487.709 297.216 484.273C294.227 481.221 291.369 478.039 288.641 474.728C287.96 473.9 287.287 473.066 286.623 472.224C286.508 472.079 285.893 471.284 285.488 470.765C285.111 470.246 284.422 469.308 284.306 469.144C283.53 468.047 282.768 466.94 282.02 465.822C276.924 458.187 272.511 450.118 268.833 441.707C268.468 440.873 268.112 440.034 267.765 439.19C267.671 438.932 267.551 438.602 267.391 438.161C266.649 436.123 265.91 434.087 265.232 432.024C263.792 427.644 262.554 423.198 261.518 418.688C261.006 416.461 260.545 414.223 260.135 411.973C259.923 410.817 259.726 409.657 259.542 408.496C259.511 408.303 259.332 407.049 259.226 406.341C259.148 405.63 259.002 404.37 258.982 404.175C258.865 403.004 258.761 401.832 258.671 400.659C258.466 398.019 258.328 395.374 258.256 392.725C258.132 388.018 258.217 383.31 258.508 378.604C258.674 375.959 258.911 373.321 259.202 370.688C259.219 370.526 259.233 370.398 259.246 370.282C259.263 370.164 259.284 370.031 259.308 369.864C259.524 368.409 259.75 366.956 260.004 365.508C260.963 360.008 262.211 354.563 263.743 349.195C264.468 346.656 265.256 344.137 266.106 341.639C266.485 340.53 266.875 339.426 267.278 338.325C267.252 338.396 268.461 335.31 268.477 335.206C273.272 323.877 281.114 313.549 281.125 300.68C281.132 291.966 273.761 283.62 265.125 284.022C260.82 284.184 256.745 286.012 253.76 289.119C250.776 292.226 249.114 296.371 249.125 300.68C249.125 300.875 249.124 301.042 249.124 301.204C249.043 301.475 248.976 301.702 248.915 301.902C247.98 303.934 246.835 305.865 245.808 307.846C242.998 313.27 240.599 318.871 238.32 324.555C234.589 333.81 231.734 343.395 229.791 353.183C225.567 374.629 225.239 396.661 228.823 418.223C235.026 456.036 255.485 492.232 283.926 516.562C286.394 518.674 288.922 520.714 291.475 522.713C292.531 523.541 293.596 524.352 294.666 525.159C295.172 525.541 297.268 527.193 296.346 526.392C298.328 528.084 299.163 528.936 299.672 530.182C299.746 530.469 299.846 530.86 299.983 531.393C300.341 532.798 300.682 534.2 300.965 535.625C303.441 548.077 305.162 560.737 307.23 573.269C308.651 581.88 319.252 587.484 326.912 584.903C335.828 581.899 339.609 573.639 338.087 564.413Z" fill="#666666"/>
<path d="M475.568 596.708C468.848 596.725 462.396 594.077 457.627 589.343C452.858 584.609 450.161 578.177 450.128 571.458V553.206C431.019 555.345 365.585 554.85 346.828 551.836V570.728C346.778 577.442 344.075 583.864 339.31 588.594C334.544 593.324 328.102 595.978 321.388 595.978C314.673 595.978 308.231 593.324 303.466 588.594C298.7 583.864 295.998 577.442 295.948 570.728V533.636C270.543 519.523 249.365 498.886 234.599 473.856C219.833 448.826 212.013 420.309 211.948 391.248C211.948 341.418 234.531 294.933 273.906 263.714C299.508 243.347 330.614 231.098 363.229 228.541C367.656 228.194 372.11 228.018 376.468 228.018C391.82 228.018 461.086 230.389 478.465 235.389L518.093 196.068C518.676 195.482 519.42 195.083 520.23 194.921C521.04 194.76 521.881 194.843 522.643 195.161C523.412 195.467 524.07 195.998 524.531 196.684C524.992 197.371 525.235 198.181 525.228 199.008V205.26L532.944 197.617C533.526 197.031 534.269 196.631 535.079 196.469C535.889 196.308 536.728 196.391 537.49 196.709C538.26 197.015 538.918 197.546 539.38 198.233C539.842 198.919 540.085 199.73 540.078 200.557V270.422C559.963 288.349 575.118 310.903 584.202 336.088C593.285 361.272 596.016 388.308 592.151 414.8C588.287 441.292 577.948 466.422 562.049 487.962C546.151 509.503 525.184 526.789 501.008 538.288V571.458C500.975 578.177 498.278 584.609 493.509 589.343C488.739 594.077 482.287 596.725 475.568 596.708V596.708ZM452.128 550.938V571.458C452.178 577.641 454.67 583.554 459.06 587.909C463.451 592.264 469.384 594.707 475.568 594.707C481.751 594.707 487.685 592.264 492.075 587.909C496.465 583.554 498.957 577.641 499.008 571.458V537.025L499.579 536.754C526.706 523.881 549.735 503.742 566.109 478.572C586.974 446.454 595.651 407.927 590.571 369.965C585.49 332.003 566.987 297.114 538.41 271.612L538.078 271.314V200.557C538.085 200.127 537.96 199.706 537.72 199.349C537.48 198.992 537.137 198.717 536.736 198.562C536.338 198.391 535.897 198.345 535.472 198.43C535.047 198.514 534.658 198.725 534.355 199.035L523.228 210.055V199.008C523.235 198.578 523.11 198.156 522.87 197.799C522.63 197.442 522.287 197.167 521.886 197.012C521.487 196.842 521.045 196.796 520.62 196.881C520.194 196.966 519.804 197.178 519.501 197.488L479.024 237.652L478.449 237.472C462.293 232.415 391.936 230.018 376.467 230.018C372.162 230.018 367.76 230.192 363.386 230.535C331.167 233.061 300.439 245.161 275.149 265.281C236.255 296.119 213.947 342.032 213.947 391.248C214.014 420.052 221.792 448.313 236.472 473.094C251.153 497.876 272.202 518.275 297.432 532.173L297.948 532.458V570.728C297.999 576.911 300.491 582.823 304.882 587.177C309.272 591.53 315.205 593.973 321.388 593.973C327.571 593.973 333.503 591.53 337.894 587.177C342.284 582.823 344.776 576.911 344.828 570.728V549.442L346.013 549.665C362.868 552.836 433.845 553.336 450.998 551.086L452.128 550.938Z" fill="#3F3D56"/>
<path d="M339.998 119.118L229.258 152.398C225.735 153.46 222.779 155.878 221.038 159.119C219.297 162.36 218.914 166.16 219.973 169.683C221.031 173.207 223.446 176.166 226.685 177.91C229.924 179.655 233.723 180.042 237.248 178.988L334.158 149.858L336.188 149.248C336.599 138.786 339.437 128.564 344.478 119.388C343.845 119.103 343.169 118.927 342.478 118.868C341.643 118.787 340.8 118.872 339.998 119.118Z" fill="#01BF71"/>
<path d="M235.333 186.083C233.863 186.079 232.431 185.614 231.24 184.752C230.049 183.891 229.158 182.677 228.695 181.282L221.77 160.386C221.481 159.513 221.366 158.592 221.433 157.675C221.5 156.758 221.747 155.863 222.159 155.042C222.572 154.22 223.142 153.488 223.838 152.887C224.533 152.286 225.341 151.828 226.213 151.539L316.345 121.669C317.217 121.38 318.138 121.265 319.055 121.332C319.972 121.398 320.866 121.645 321.688 122.057C322.509 122.47 323.242 123.04 323.843 123.736C324.444 124.431 324.902 125.238 325.191 126.111L332.116 147.007C332.692 148.725 332.577 150.601 331.794 152.236C331.011 153.871 329.623 155.137 327.923 155.766C327.84 155.797 327.756 155.827 327.671 155.854L237.542 185.723C236.829 185.961 236.083 186.082 235.333 186.083Z" fill="#2F2E41"/>
<path d="M404.128 82.0076C385.937 82.0146 368.462 89.0998 355.403 101.763C342.343 114.427 334.724 131.675 334.157 149.858C334.137 150.568 334.128 151.288 334.128 152.008C334.128 165.852 338.233 179.386 345.925 190.898C353.616 202.409 364.549 211.381 377.34 216.679C390.131 221.977 404.205 223.364 417.784 220.663C431.363 217.962 443.835 211.295 453.625 201.505C463.415 191.715 470.082 179.243 472.783 165.664C475.484 152.085 474.097 138.011 468.799 125.22C463.501 112.429 454.529 101.496 443.018 93.8047C431.506 86.113 417.972 82.0076 404.128 82.0076V82.0076ZM404.128 220.008C386.099 219.989 368.814 212.819 356.065 200.07C343.317 187.322 336.146 170.037 336.128 152.008C336.128 151.078 336.148 150.158 336.188 149.248C336.729 135.927 341.174 123.06 348.97 112.246C356.766 101.432 367.568 93.1477 380.035 88.4238C392.501 83.6999 406.08 82.7446 419.085 85.6767C432.09 88.6087 443.946 95.2988 453.179 104.915C462.412 114.531 468.615 126.649 471.016 139.763C473.417 152.876 471.91 166.406 466.683 178.669C461.457 190.933 452.74 201.39 441.618 208.74C430.496 216.09 417.459 220.008 404.128 220.008V220.008Z" fill="#3F3D56"/>
<path d="M463.128 152.008C463.128 167.655 456.912 182.662 445.847 193.727C434.782 204.792 419.775 211.008 404.128 211.008C388.48 211.008 373.473 204.792 362.408 193.727C351.344 182.662 345.128 167.655 345.128 152.008C345.128 150.138 345.218 148.298 345.387 146.478C346.809 131.376 353.993 117.402 365.446 107.457C376.9 97.5125 391.744 92.3612 406.896 93.0728C422.048 93.7845 436.343 100.304 446.814 111.279C457.285 122.253 463.128 136.839 463.128 152.008V152.008Z" fill="#E6E6E6"/>
<path d="M421.698 155.928C420.267 154.047 418.386 152.558 416.228 151.598C413.566 150.476 410.817 149.573 408.008 148.898V132.838C412.325 133.489 416.375 135.335 419.698 138.168L422.958 131.218C421.083 129.547 418.93 128.217 416.597 127.288C414.012 126.241 411.298 125.544 408.528 125.218V117.078H400.978V125.298C398.062 125.625 395.25 126.569 392.728 128.068C390.449 129.416 388.531 131.296 387.137 133.548C385.807 135.745 385.118 138.27 385.148 140.838C385.018 143.62 385.824 146.367 387.438 148.638C388.923 150.604 390.885 152.159 393.137 153.158C395.842 154.313 398.639 155.239 401.498 155.928V171.318C396.403 170.933 391.548 168.996 387.588 165.768L384.328 172.728C386.542 174.558 389.06 175.987 391.768 176.948C394.735 178.009 397.834 178.655 400.978 178.868V186.938H408.528V178.718C412.721 178.259 416.654 176.456 419.738 173.578C421.096 172.275 422.168 170.705 422.888 168.966C423.608 167.228 423.958 165.359 423.918 163.478C424.043 160.783 423.261 158.125 421.698 155.928V155.928ZM401.498 147.198C399.659 146.64 397.949 145.722 396.468 144.498C395.881 143.975 395.417 143.33 395.109 142.607C394.801 141.884 394.657 141.103 394.688 140.318C394.633 138.536 395.288 136.807 396.508 135.508C397.86 134.145 399.605 133.239 401.498 132.918V147.198ZM412.748 168.478C411.472 169.786 409.811 170.651 408.008 170.948V157.708C409.731 158.17 411.344 158.976 412.748 160.078C413.28 160.532 413.703 161.101 413.985 161.742C414.267 162.382 414.402 163.078 414.378 163.778C414.447 165.494 413.865 167.173 412.748 168.478V168.478Z" fill="#01BF71"/>
<path d="M238.547 270.772C237.001 270.769 235.499 270.257 234.274 269.314C233.049 268.371 232.17 267.05 231.772 265.556L228.002 251.286C227.53 249.492 227.788 247.585 228.721 245.982C229.654 244.379 231.184 243.211 232.977 242.735L351.917 211.305C353.712 210.837 355.619 211.098 357.222 212.033C358.824 212.967 359.992 214.498 360.468 216.29L363.662 228.38L363.064 228.427C332.559 230.798 303.372 241.858 278.956 260.298L278.783 260.382L240.323 270.541C239.743 270.694 239.146 270.772 238.547 270.772V270.772Z" fill="#2F2E41"/>
<path d="M218.848 341.258C204.895 339.197 191.552 334.151 179.726 326.466C173.867 322.661 168.443 318.225 163.552 313.238C158.724 308.313 154.105 302.716 151.714 296.158C149.413 290.091 149.532 283.372 152.045 277.389C154.524 271.443 159.26 266.723 165.214 264.264C171.204 261.875 178.44 261.619 184.269 264.235C187.047 265.453 189.451 267.388 191.234 269.841C192.062 270.972 192.676 272.246 193.044 273.599C193.385 274.825 193.416 276.117 193.134 277.358C192.793 278.598 192.19 279.749 191.366 280.736C190.543 281.723 189.518 282.523 188.36 283.081C185.813 284.389 183.052 285.231 180.208 285.568C177.348 285.958 173.24 286.313 170.94 284.017C170.467 283.563 170.095 283.014 169.848 282.406C169.675 281.941 169.616 281.441 169.675 280.948C169.642 281.165 169.814 280.476 169.804 280.503C169.768 280.605 169.61 280.853 169.834 280.472C169.904 280.346 169.982 280.225 170.067 280.109C169.991 280.207 169.824 280.371 170.123 280.09C170.369 279.82 170.685 279.625 171.037 279.525C171.175 279.485 171.316 279.453 171.454 279.415C171.807 279.318 171.103 279.42 171.464 279.408C171.603 279.404 171.744 279.407 171.883 279.401C172.237 279.385 171.533 279.305 171.873 279.39C172.004 279.423 172.135 279.455 172.265 279.496C172.547 279.585 172.065 279.289 172.256 279.511C172.48 279.77 172.021 279.258 172.276 279.51C172.402 279.634 172.522 279.766 172.633 279.904C173.075 280.34 173.67 280.584 174.291 280.584C174.911 280.584 175.507 280.34 175.948 279.904C176.375 279.457 176.613 278.864 176.613 278.246C176.613 277.629 176.375 277.035 175.948 276.589C173.637 273.724 169.071 274.432 166.733 276.853C163.751 279.942 164.932 284.836 167.832 287.531C171.116 290.582 175.767 290.794 179.991 290.282C183.561 289.94 187.039 288.957 190.26 287.38C193.46 285.808 195.963 283.104 197.284 279.792C197.88 278.025 198.095 276.151 197.912 274.294C197.73 272.438 197.156 270.641 196.228 269.023C192.498 262.012 184.776 258.418 177.143 257.795C173.213 257.487 169.262 257.962 165.516 259.191C161.771 260.421 158.307 262.381 155.324 264.958C149.575 270.133 146.035 277.32 145.436 285.033C144.77 293.029 147.872 300.794 152.395 307.247C157.131 313.804 162.781 319.647 169.175 324.6C181.674 334.579 196.336 341.494 211.987 344.791C213.848 345.176 215.72 345.505 217.602 345.779C218.2 345.924 218.832 345.835 219.367 345.531C219.903 345.227 220.303 344.73 220.485 344.142C220.646 343.542 220.564 342.904 220.258 342.364C219.951 341.824 219.445 341.427 218.848 341.258L218.848 341.258Z" fill="#3F3D56"/>
<path d="M442.233 239.382C421.791 239.093 401.413 239.612 381.1 240.938C374.157 241.392 368.149 243.846 368.149 247.97C368.149 251.419 374.109 255.459 381.1 255.002C401.403 253.676 421.781 253.158 442.233 253.446C458.907 253.681 458.897 239.617 442.233 239.382Z" fill="#CCCCCC"/>
<path d="M412.019 252.749C409.81 252.749 357.914 252.667 357.914 245.498C357.914 238.33 409.81 238.248 412.019 238.248C414.229 238.248 466.125 238.33 466.125 245.498C466.125 252.667 414.229 252.749 412.019 252.749ZM359.943 245.498C361.363 247.672 380.439 250.749 412.019 250.749C443.599 250.749 462.675 247.672 464.096 245.498C462.676 243.325 443.599 240.248 412.019 240.248C380.439 240.248 361.363 243.326 359.943 245.498V245.498Z" fill="#3F3D56"/>
<path d="M576.673 441.2C588.162 440.881 602.459 440.482 613.474 432.436C616.754 429.941 619.449 426.76 621.37 423.115C623.291 419.469 624.392 415.448 624.595 411.332C624.82 404.978 622.524 399.431 618.13 395.718C612.377 390.857 603.976 389.717 594.923 392.377L604.302 323.829L597.417 322.886L586.39 403.473L592.14 400.834C598.806 397.776 607.957 396.22 613.644 401.026C615.04 402.282 616.128 403.843 616.823 405.589C617.517 407.334 617.8 409.216 617.649 411.088C617.481 414.151 616.654 417.142 615.227 419.857C613.799 422.572 611.803 424.948 609.374 426.823C600.802 433.084 589.406 433.891 576.48 434.253L576.673 441.2Z" fill="#3F3D56"/>
<path d="M557.635 329.741H520.203V336.691H557.635V329.741Z" fill="#3F3D56"/>
<path d="M255.485 302.738C253.819 302.732 252.209 302.134 250.944 301.05C249.679 299.965 248.841 298.466 248.581 296.82L246.296 282.239C246.011 280.405 246.465 278.532 247.558 277.033C248.652 275.533 250.295 274.528 252.129 274.239L373.66 255.197C375.494 254.911 377.366 255.365 378.866 256.458C380.365 257.552 381.37 259.195 381.659 261.029L383.944 275.611C384.229 277.444 383.775 279.317 382.682 280.816C381.589 282.316 379.945 283.321 378.112 283.61L256.58 302.652C256.218 302.709 255.852 302.737 255.485 302.738Z" fill="#2F2E41"/>
<path d="M205.189 131.855C233.356 131.855 256.189 109.021 256.189 80.8547C256.189 52.6882 233.356 29.8547 205.189 29.8547C177.023 29.8547 154.189 52.6882 154.189 80.8547C154.189 109.021 177.023 131.855 205.189 131.855Z" fill="#01BF71"/>
<path d="M234.065 94.0507C235.695 93.4806 237.184 92.5681 238.432 91.3745C239.257 90.5236 239.887 89.5024 240.276 88.3825C240.666 87.2626 240.806 86.0712 240.686 84.8915C240.617 84.0507 240.354 83.2374 239.918 82.515C239.483 81.7927 238.886 81.1809 238.174 80.7274C236.329 79.5924 233.89 79.6352 231.427 80.7767L231.143 60.8688L229.143 60.8973L229.477 84.3011L231 83.3027C232.765 82.1468 235.301 81.3086 237.126 82.4311C237.578 82.7283 237.954 83.1255 238.227 83.592C238.5 84.0584 238.662 84.5816 238.699 85.1206C238.783 85.9994 238.677 86.8861 238.388 87.7202C238.099 88.5543 237.633 89.3162 237.023 89.9543C234.855 92.1054 231.646 92.8262 227.984 93.4854L228.338 95.4535C230.285 95.1579 232.202 94.6884 234.065 94.0507V94.0507Z" fill="#2F2E41"/>
<path d="M251.737 59.4715L241.087 61.0844L241.386 63.0616L252.036 61.4487L251.737 59.4715Z" fill="#2F2E41"/>
<path d="M218.12 64.5614L207.47 66.1743L207.769 68.1515L218.419 66.5386L218.12 64.5614Z" fill="#2F2E41"/>
<path d="M238.892 301.846C237.058 301.842 235.269 301.28 233.762 300.234C232.255 299.188 231.103 297.708 230.458 295.991L195.295 201.822C190.997 190.273 191.456 177.49 196.571 166.279C201.686 155.068 211.039 146.343 222.579 142.02L251.171 131.344C252.276 130.928 253.453 130.735 254.634 130.776C255.814 130.817 256.975 131.091 258.049 131.582C259.12 132.061 260.086 132.749 260.888 133.605C261.691 134.461 262.315 135.468 262.724 136.568L327.861 259.552C328.284 260.661 328.483 261.843 328.447 263.029C328.412 264.215 328.142 265.383 327.654 266.465C327.165 267.546 326.467 268.521 325.601 269.332C324.734 270.143 323.716 270.774 322.604 271.19L242.038 301.274C241.032 301.651 239.967 301.845 238.892 301.846Z" fill="#2F2E41"/>
<path d="M242.496 134.582L307.125 221.008L263.393 135.49C263.032 134.492 262.478 133.575 261.762 132.791C261.047 132.008 260.184 131.373 259.223 130.923C258.262 130.473 257.222 130.216 256.161 130.169C255.101 130.121 254.042 130.282 253.044 130.644L242.496 134.582Z" fill="#E6E6E6"/>
<path d="M344.828 200.218L229.433 192.784C227.614 192.667 225.836 192.193 224.2 191.389C222.565 190.584 221.103 189.466 219.9 188.097C218.697 186.728 217.775 185.135 217.187 183.41C216.599 181.685 216.357 179.861 216.474 178.042C216.591 176.223 217.066 174.445 217.87 172.809C218.674 171.173 219.793 169.712 221.162 168.509C222.531 167.306 224.123 166.384 225.849 165.796C227.574 165.208 229.398 164.966 231.217 165.083L346.612 172.516C347.464 172.57 348.297 172.792 349.063 173.169C349.829 173.546 350.513 174.069 351.077 174.711C351.64 175.352 352.072 176.098 352.347 176.906C352.623 177.714 352.736 178.568 352.681 179.42L351.733 194.149C351.622 195.869 350.832 197.475 349.537 198.613C348.242 199.751 346.548 200.328 344.828 200.218Z" fill="#01BF71"/>
<path d="M313.993 204.983C313.84 204.983 313.688 204.978 313.535 204.968H313.534L218.778 198.865C217.861 198.806 216.964 198.566 216.139 198.161C215.314 197.755 214.577 197.191 213.97 196.501C213.363 195.81 212.898 195.007 212.602 194.137C212.306 193.267 212.183 192.347 212.243 191.43L213.863 166.271C213.922 165.354 214.161 164.457 214.567 163.632C214.973 162.807 215.537 162.07 216.227 161.464C216.918 160.857 217.721 160.392 218.591 160.095C219.461 159.799 220.381 159.677 221.299 159.736L316.055 165.839C317.907 165.96 319.635 166.811 320.86 168.205C322.085 169.599 322.707 171.422 322.59 173.274L320.97 198.433C320.881 199.781 320.404 201.075 319.598 202.159C318.792 203.243 317.689 204.071 316.424 204.544C315.646 204.835 314.823 204.983 313.993 204.983V204.983Z" fill="#2F2E41"/>
<path d="M204.605 46.9405C211.314 41.1702 220.527 46.3321 228.221 45.4285C235.583 44.564 241.395 37.961 242.88 30.9462C244.612 22.7622 240.364 14.563 234.103 9.4604C227.246 3.87182 218.151 2.26747 209.533 3.3014C199.655 4.4864 190.622 9.09075 182.516 14.6599C174.692 19.8691 167.497 25.966 161.074 32.8291C155.323 39.1808 150.451 46.7518 148.895 55.2989C147.481 63.0664 148.56 71.6739 153.152 78.254C155.587 81.6266 158.85 84.3148 162.626 86.0593C166.564 87.9927 170.764 89.3749 174.578 91.561C180.346 94.8663 185.952 101.72 184.145 108.852C183.758 110.41 182.993 111.849 181.919 113.042C180.629 114.475 178.301 112.581 179.595 111.145C181.867 108.622 181.778 105.257 180.567 102.245C179.126 98.8502 176.576 96.0456 173.333 94.2903C169.34 92.0074 164.932 90.5982 160.839 88.5188C156.922 86.6192 153.522 83.8013 150.928 80.3049C146.03 73.4979 144.564 64.6391 145.675 56.4439C146.877 47.5755 151.434 39.5167 157.146 32.7635C163.362 25.414 170.998 19.1929 178.798 13.6041C187.168 7.60727 196.416 2.53735 206.648 0.703641C215.519 -0.885899 225.133 0.0927219 232.89 4.92657C240.13 9.43866 245.682 17.2003 246.234 25.8733C246.432 29.8194 245.576 33.7471 243.752 37.2522C241.928 40.7572 239.203 43.713 235.858 45.8153C232.425 47.8695 228.434 48.7941 224.448 48.4587C220.186 48.1859 215.921 46.8809 211.632 47.2432C209.691 47.361 207.842 48.1082 206.364 49.3717C204.898 50.6324 203.151 48.191 204.605 46.9406V46.9405Z" fill="#2F2E41"/>
<path d="M739.485 597.175H1.19069C0.875498 597.174 0.573534 597.048 0.350983 596.825C0.128431 596.602 0.00344849 596.3 0.00344849 595.984C0.00344849 595.669 0.128431 595.367 0.350983 595.144C0.573534 594.921 0.875498 594.795 1.19069 594.794H739.485C739.8 594.794 740.103 594.919 740.327 595.143C740.55 595.366 740.675 595.669 740.675 595.984C740.675 596.3 740.55 596.603 740.327 596.826C740.103 597.05 739.8 597.175 739.485 597.175V597.175Z" fill="#3F3D56"/>
<path d="M349.638 386H345.79C345.46 386 345.198 385.917 345.003 385.752C344.823 385.572 344.673 385.377 344.553 385.167L338.815 376.235C338.755 376.445 338.688 376.655 338.613 376.865C338.553 377.06 338.463 377.24 338.343 377.405L333.033 385.167C332.883 385.377 332.718 385.572 332.538 385.752C332.373 385.917 332.14 386 331.84 386H328.263L336.25 374.3L328.578 363.207H332.425C332.755 363.207 332.995 363.26 333.145 363.365C333.295 363.47 333.43 363.62 333.55 363.815L339.153 372.365C339.273 371.93 339.46 371.51 339.715 371.105L344.62 363.905C344.755 363.695 344.898 363.53 345.048 363.41C345.213 363.275 345.408 363.207 345.633 363.207H349.323L341.65 374.097L349.638 386ZM371.397 374.03L366.335 360.912C366.185 360.522 366.027 360.072 365.862 359.562C365.697 359.037 365.54 358.482 365.39 357.897C365.075 359.112 364.752 360.125 364.422 360.935L359.36 374.03H371.397ZM380.487 386H377.112C376.722 386 376.407 385.902 376.167 385.707C375.927 385.512 375.747 385.265 375.627 384.965L372.612 377.18H358.145L355.13 384.965C355.04 385.235 354.867 385.475 354.612 385.685C354.357 385.895 354.042 386 353.667 386H350.292L363.185 353.757H367.595L380.487 386ZM397.059 366.965C396.879 367.295 396.601 367.46 396.226 367.46C396.001 367.46 395.746 367.377 395.461 367.212C395.176 367.047 394.824 366.867 394.404 366.672C393.999 366.462 393.511 366.275 392.941 366.11C392.371 365.93 391.696 365.84 390.916 365.84C390.241 365.84 389.634 365.93 389.094 366.11C388.554 366.275 388.089 366.507 387.699 366.807C387.324 367.107 387.031 367.46 386.821 367.865C386.626 368.255 386.529 368.682 386.529 369.147C386.529 369.732 386.694 370.22 387.024 370.61C387.369 371 387.819 371.337 388.374 371.622C388.929 371.907 389.559 372.162 390.264 372.387C390.969 372.597 391.689 372.83 392.424 373.085C393.174 373.325 393.901 373.595 394.606 373.895C395.311 374.195 395.941 374.57 396.496 375.02C397.051 375.47 397.494 376.025 397.824 376.685C398.169 377.33 398.341 378.11 398.341 379.025C398.341 380.075 398.154 381.05 397.779 381.95C397.404 382.835 396.849 383.607 396.114 384.267C395.379 384.912 394.479 385.422 393.414 385.797C392.349 386.173 391.119 386.36 389.724 386.36C388.134 386.36 386.694 386.105 385.404 385.595C384.114 385.07 383.019 384.402 382.119 383.592L383.064 382.062C383.184 381.867 383.326 381.717 383.491 381.612C383.656 381.507 383.866 381.455 384.121 381.455C384.391 381.455 384.676 381.56 384.976 381.77C385.276 381.98 385.636 382.212 386.056 382.467C386.491 382.722 387.016 382.955 387.631 383.165C388.246 383.375 389.011 383.48 389.926 383.48C390.706 383.48 391.389 383.382 391.974 383.188C392.559 382.977 393.046 382.7 393.436 382.355C393.826 382.01 394.111 381.612 394.291 381.162C394.486 380.712 394.584 380.232 394.584 379.722C394.584 379.092 394.411 378.575 394.066 378.17C393.736 377.75 393.294 377.397 392.739 377.112C392.184 376.812 391.546 376.557 390.826 376.347C390.121 376.122 389.394 375.89 388.644 375.65C387.909 375.41 387.181 375.14 386.461 374.84C385.756 374.525 385.126 374.135 384.571 373.67C384.016 373.205 383.566 372.635 383.221 371.96C382.891 371.27 382.726 370.437 382.726 369.462C382.726 368.592 382.906 367.76 383.266 366.965C383.626 366.155 384.151 365.45 384.841 364.85C385.531 364.235 386.379 363.747 387.384 363.388C388.389 363.027 389.536 362.847 390.826 362.847C392.326 362.847 393.669 363.087 394.854 363.567C396.054 364.032 397.089 364.677 397.959 365.502L397.059 366.965ZM416.527 366.965C416.347 367.295 416.069 367.46 415.694 367.46C415.469 367.46 415.214 367.377 414.929 367.212C414.644 367.047 414.292 366.867 413.872 366.672C413.467 366.462 412.979 366.275 412.409 366.11C411.839 365.93 411.164 365.84 410.384 365.84C409.709 365.84 409.102 365.93 408.562 366.11C408.022 366.275 407.557 366.507 407.167 366.807C406.792 367.107 406.499 367.46 406.289 367.865C406.094 368.255 405.997 368.682 405.997 369.147C405.997 369.732 406.162 370.22 406.492 370.61C406.837 371 407.287 371.337 407.842 371.622C408.397 371.907 409.027 372.162 409.732 372.387C410.437 372.597 411.157 372.83 411.892 373.085C412.642 373.325 413.369 373.595 414.074 373.895C414.779 374.195 415.409 374.57 415.964 375.02C416.519 375.47 416.962 376.025 417.292 376.685C417.637 377.33 417.809 378.11 417.809 379.025C417.809 380.075 417.622 381.05 417.247 381.95C416.872 382.835 416.317 383.607 415.582 384.267C414.847 384.912 413.947 385.422 412.882 385.797C411.817 386.173 410.587 386.36 409.192 386.36C407.602 386.36 406.162 386.105 404.872 385.595C403.582 385.07 402.487 384.402 401.587 383.592L402.532 382.062C402.652 381.867 402.794 381.717 402.959 381.612C403.124 381.507 403.334 381.455 403.589 381.455C403.859 381.455 404.144 381.56 404.444 381.77C404.744 381.98 405.104 382.212 405.524 382.467C405.959 382.722 406.484 382.955 407.099 383.165C407.714 383.375 408.479 383.48 409.394 383.48C410.174 383.48 410.857 383.382 411.442 383.188C412.027 382.977 412.514 382.7 412.904 382.355C413.294 382.01 413.579 381.612 413.759 381.162C413.954 380.712 414.052 380.232 414.052 379.722C414.052 379.092 413.879 378.575 413.534 378.17C413.204 377.75 412.762 377.397 412.207 377.112C411.652 376.812 411.014 376.557 410.294 376.347C409.589 376.122 408.862 375.89 408.112 375.65C407.377 375.41 406.649 375.14 405.929 374.84C405.224 374.525 404.594 374.135 404.039 373.67C403.484 373.205 403.034 372.635 402.689 371.96C402.359 371.27 402.194 370.437 402.194 369.462C402.194 368.592 402.374 367.76 402.734 366.965C403.094 366.155 403.619 365.45 404.309 364.85C404.999 364.235 405.847 363.747 406.852 363.388C407.857 363.027 409.004 362.847 410.294 362.847C411.794 362.847 413.137 363.087 414.322 363.567C415.522 364.032 416.557 364.677 417.427 365.502L416.527 366.965ZM437.974 372.117C437.974 371.187 437.839 370.34 437.569 369.575C437.314 368.795 436.932 368.127 436.422 367.572C435.927 367.002 435.319 366.567 434.599 366.267C433.879 365.952 433.062 365.795 432.147 365.795C430.227 365.795 428.704 366.357 427.579 367.482C426.469 368.592 425.779 370.137 425.509 372.117H437.974ZM441.214 382.805C440.719 383.405 440.127 383.93 439.437 384.38C438.747 384.815 438.004 385.175 437.209 385.46C436.429 385.745 435.619 385.955 434.779 386.09C433.939 386.24 433.107 386.315 432.282 386.315C430.707 386.315 429.252 386.052 427.917 385.527C426.597 384.987 425.449 384.207 424.474 383.188C423.514 382.152 422.764 380.877 422.224 379.362C421.684 377.847 421.414 376.107 421.414 374.142C421.414 372.552 421.654 371.067 422.134 369.687C422.629 368.307 423.334 367.115 424.249 366.11C425.164 365.09 426.282 364.295 427.602 363.725C428.922 363.14 430.407 362.847 432.057 362.847C433.422 362.847 434.682 363.08 435.837 363.545C437.007 363.995 438.012 364.655 438.852 365.525C439.707 366.38 440.374 367.445 440.854 368.72C441.334 369.98 441.574 371.42 441.574 373.04C441.574 373.67 441.507 374.09 441.372 374.3C441.237 374.51 440.982 374.615 440.607 374.615H425.374C425.419 376.055 425.614 377.307 425.959 378.372C426.319 379.437 426.814 380.33 427.444 381.05C428.074 381.755 428.824 382.287 429.694 382.647C430.564 382.992 431.539 383.165 432.619 383.165C433.624 383.165 434.487 383.052 435.207 382.827C435.942 382.587 436.572 382.332 437.097 382.062C437.622 381.792 438.057 381.545 438.402 381.32C438.762 381.08 439.069 380.96 439.324 380.96C439.654 380.96 439.909 381.087 440.089 381.342L441.214 382.805ZM453.316 386.36C451.516 386.36 450.128 385.857 449.153 384.852C448.193 383.847 447.713 382.4 447.713 380.51V366.56H444.968C444.728 366.56 444.526 366.492 444.361 366.357C444.196 366.207 444.113 365.982 444.113 365.682V364.085L447.848 363.612L448.771 356.57C448.816 356.345 448.913 356.165 449.063 356.03C449.228 355.88 449.438 355.805 449.693 355.805H451.718V363.657H458.311V366.56H451.718V380.24C451.718 381.2 451.951 381.912 452.416 382.377C452.881 382.842 453.481 383.075 454.216 383.075C454.636 383.075 454.996 383.022 455.296 382.917C455.611 382.797 455.881 382.67 456.106 382.535C456.331 382.4 456.518 382.28 456.668 382.175C456.833 382.055 456.976 381.995 457.096 381.995C457.306 381.995 457.493 382.122 457.658 382.377L458.828 384.29C458.138 384.935 457.306 385.445 456.331 385.82C455.356 386.18 454.351 386.36 453.316 386.36ZM475.721 366.965C475.541 367.295 475.263 367.46 474.888 367.46C474.663 367.46 474.408 367.377 474.123 367.212C473.838 367.047 473.486 366.867 473.066 366.672C472.661 366.462 472.173 366.275 471.603 366.11C471.033 365.93 470.358 365.84 469.578 365.84C468.903 365.84 468.296 365.93 467.756 366.11C467.216 366.275 466.751 366.507 466.361 366.807C465.986 367.107 465.693 367.46 465.483 367.865C465.288 368.255 465.191 368.682 465.191 369.147C465.191 369.732 465.356 370.22 465.686 370.61C466.031 371 466.481 371.337 467.036 371.622C467.591 371.907 468.221 372.162 468.926 372.387C469.631 372.597 470.351 372.83 471.086 373.085C471.836 373.325 472.563 373.595 473.268 373.895C473.973 374.195 474.603 374.57 475.158 375.02C475.713 375.47 476.156 376.025 476.486 376.685C476.831 377.33 477.003 378.11 477.003 379.025C477.003 380.075 476.816 381.05 476.441 381.95C476.066 382.835 475.511 383.607 474.776 384.267C474.041 384.912 473.141 385.422 472.076 385.797C471.011 386.173 469.781 386.36 468.386 386.36C466.796 386.36 465.356 386.105 464.066 385.595C462.776 385.07 461.681 384.402 460.781 383.592L461.726 382.062C461.846 381.867 461.988 381.717 462.153 381.612C462.318 381.507 462.528 381.455 462.783 381.455C463.053 381.455 463.338 381.56 463.638 381.77C463.938 381.98 464.298 382.212 464.718 382.467C465.153 382.722 465.678 382.955 466.293 383.165C466.908 383.375 467.673 383.48 468.588 383.48C469.368 383.48 470.051 383.382 470.636 383.188C471.221 382.977 471.708 382.7 472.098 382.355C472.488 382.01 472.773 381.612 472.953 381.162C473.148 380.712 473.246 380.232 473.246 379.722C473.246 379.092 473.073 378.575 472.728 378.17C472.398 377.75 471.956 377.397 471.401 377.112C470.846 376.812 470.208 376.557 469.488 376.347C468.783 376.122 468.056 375.89 467.306 375.65C466.571 375.41 465.843 375.14 465.123 374.84C464.418 374.525 463.788 374.135 463.233 373.67C462.678 373.205 462.228 372.635 461.883 371.96C461.553 371.27 461.388 370.437 461.388 369.462C461.388 368.592 461.568 367.76 461.928 366.965C462.288 366.155 462.813 365.45 463.503 364.85C464.193 364.235 465.041 363.747 466.046 363.388C467.051 363.027 468.198 362.847 469.488 362.847C470.988 362.847 472.331 363.087 473.516 363.567C474.716 364.032 475.751 364.677 476.621 365.502L475.721 366.965ZM313.937 429.74C312.092 429.8 310.517 429.95 309.212 430.19C307.922 430.415 306.864 430.715 306.039 431.09C305.229 431.465 304.637 431.907 304.262 432.417C303.902 432.927 303.722 433.497 303.722 434.127C303.722 434.727 303.819 435.245 304.014 435.68C304.209 436.115 304.472 436.475 304.802 436.76C305.147 437.03 305.544 437.232 305.994 437.367C306.459 437.487 306.954 437.547 307.479 437.547C308.184 437.547 308.829 437.48 309.414 437.345C309.999 437.195 310.547 436.985 311.057 436.715C311.582 436.445 312.077 436.122 312.542 435.747C313.022 435.372 313.487 434.945 313.937 434.465V429.74ZM300.999 420.425C302.259 419.21 303.617 418.302 305.072 417.702C306.527 417.102 308.139 416.802 309.909 416.802C311.184 416.802 312.317 417.012 313.307 417.432C314.297 417.852 315.129 418.437 315.804 419.187C316.479 419.937 316.989 420.845 317.334 421.91C317.679 422.975 317.852 424.145 317.852 425.42V440H316.074C315.684 440 315.384 439.94 315.174 439.82C314.964 439.685 314.799 439.43 314.679 439.055L314.229 436.895C313.629 437.45 313.044 437.945 312.474 438.38C311.904 438.8 311.304 439.16 310.674 439.46C310.044 439.745 309.369 439.962 308.649 440.113C307.944 440.278 307.157 440.36 306.287 440.36C305.402 440.36 304.569 440.24 303.789 440C303.009 439.745 302.327 439.37 301.742 438.875C301.172 438.38 300.714 437.757 300.369 437.007C300.039 436.242 299.874 435.342 299.874 434.307C299.874 433.407 300.122 432.545 300.617 431.72C301.112 430.88 301.914 430.137 303.024 429.492C304.134 428.847 305.582 428.322 307.367 427.917C309.152 427.498 311.342 427.257 313.937 427.197V425.42C313.937 423.65 313.554 422.315 312.789 421.415C312.024 420.5 310.907 420.042 309.437 420.042C308.447 420.042 307.614 420.17 306.939 420.425C306.279 420.665 305.702 420.942 305.207 421.257C304.727 421.557 304.307 421.835 303.947 422.09C303.602 422.33 303.257 422.45 302.912 422.45C302.642 422.45 302.409 422.382 302.214 422.247C302.019 422.097 301.854 421.917 301.719 421.707L300.999 420.425ZM327.732 420.515C328.227 419.96 328.752 419.457 329.307 419.007C329.862 418.557 330.447 418.175 331.062 417.86C331.692 417.53 332.352 417.282 333.042 417.117C333.747 416.937 334.505 416.847 335.315 416.847C336.56 416.847 337.655 417.057 338.6 417.477C339.56 417.882 340.355 418.467 340.985 419.232C341.63 419.982 342.117 420.89 342.447 421.955C342.777 423.02 342.942 424.197 342.942 425.487V440H338.915V425.487C338.915 423.762 338.517 422.427 337.722 421.482C336.942 420.522 335.75 420.042 334.145 420.042C332.96 420.042 331.85 420.327 330.815 420.897C329.795 421.467 328.85 422.24 327.98 423.215V440H323.952V417.207H326.36C326.93 417.207 327.282 417.485 327.417 418.04L327.732 420.515ZM363.895 422.63C363.145 421.625 362.335 420.927 361.465 420.537C360.595 420.132 359.62 419.93 358.54 419.93C356.425 419.93 354.798 420.687 353.658 422.202C352.518 423.717 351.948 425.877 351.948 428.682C351.948 430.167 352.075 431.442 352.33 432.507C352.585 433.557 352.96 434.427 353.455 435.117C353.95 435.792 354.558 436.287 355.278 436.602C355.998 436.917 356.815 437.075 357.73 437.075C359.05 437.075 360.198 436.775 361.173 436.175C362.163 435.575 363.07 434.727 363.895 433.632V422.63ZM367.9 406.857V440H365.515C364.945 440 364.585 439.722 364.435 439.167L364.075 436.4C363.1 437.57 361.99 438.515 360.745 439.235C359.5 439.955 358.06 440.315 356.425 440.315C355.12 440.315 353.935 440.067 352.87 439.572C351.805 439.062 350.898 438.32 350.148 437.345C349.398 436.37 348.82 435.155 348.415 433.7C348.01 432.245 347.808 430.572 347.808 428.682C347.808 427.002 348.033 425.442 348.483 424.002C348.933 422.547 349.578 421.287 350.418 420.222C351.258 419.157 352.285 418.325 353.5 417.725C354.73 417.11 356.11 416.802 357.64 416.802C359.035 416.802 360.228 417.042 361.218 417.522C362.223 417.987 363.115 418.64 363.895 419.48V406.857H367.9ZM399.014 420.965C398.834 421.295 398.557 421.46 398.182 421.46C397.957 421.46 397.702 421.377 397.417 421.212C397.132 421.047 396.779 420.867 396.359 420.672C395.954 420.462 395.467 420.275 394.897 420.11C394.327 419.93 393.652 419.84 392.872 419.84C392.197 419.84 391.589 419.93 391.049 420.11C390.509 420.275 390.044 420.507 389.654 420.807C389.279 421.107 388.987 421.46 388.777 421.865C388.582 422.255 388.484 422.682 388.484 423.147C388.484 423.732 388.649 424.22 388.979 424.61C389.324 425 389.774 425.337 390.329 425.622C390.884 425.907 391.514 426.162 392.219 426.387C392.924 426.597 393.644 426.83 394.379 427.085C395.129 427.325 395.857 427.595 396.562 427.895C397.267 428.195 397.897 428.57 398.452 429.02C399.007 429.47 399.449 430.025 399.779 430.685C400.124 431.33 400.297 432.11 400.297 433.025C400.297 434.075 400.109 435.05 399.734 435.95C399.359 436.835 398.804 437.607 398.069 438.267C397.334 438.912 396.434 439.422 395.369 439.797C394.304 440.173 393.074 440.36 391.679 440.36C390.089 440.36 388.649 440.105 387.359 439.595C386.069 439.07 384.974 438.402 384.074 437.592L385.019 436.062C385.139 435.867 385.282 435.717 385.447 435.612C385.612 435.507 385.822 435.455 386.077 435.455C386.347 435.455 386.632 435.56 386.932 435.77C387.232 435.98 387.592 436.212 388.012 436.467C388.447 436.722 388.972 436.955 389.587 437.165C390.202 437.375 390.967 437.48 391.882 437.48C392.662 437.48 393.344 437.382 393.929 437.188C394.514 436.977 395.002 436.7 395.392 436.355C395.782 436.01 396.067 435.612 396.247 435.162C396.442 434.712 396.539 434.232 396.539 433.722C396.539 433.092 396.367 432.575 396.022 432.17C395.692 431.75 395.249 431.397 394.694 431.112C394.139 430.812 393.502 430.557 392.782 430.347C392.077 430.122 391.349 429.89 390.599 429.65C389.864 429.41 389.137 429.14 388.417 428.84C387.712 428.525 387.082 428.135 386.527 427.67C385.972 427.205 385.522 426.635 385.177 425.96C384.847 425.27 384.682 424.437 384.682 423.462C384.682 422.592 384.862 421.76 385.222 420.965C385.582 420.155 386.107 419.45 386.797 418.85C387.487 418.235 388.334 417.747 389.339 417.388C390.344 417.027 391.492 416.847 392.782 416.847C394.282 416.847 395.624 417.087 396.809 417.567C398.009 418.032 399.044 418.677 399.914 419.502L399.014 420.965ZM412.205 440.36C410.405 440.36 409.017 439.857 408.042 438.852C407.082 437.847 406.602 436.4 406.602 434.51V420.56H403.857C403.617 420.56 403.415 420.492 403.25 420.357C403.085 420.207 403.002 419.982 403.002 419.682V418.085L406.737 417.612L407.66 410.57C407.705 410.345 407.802 410.165 407.952 410.03C408.117 409.88 408.327 409.805 408.582 409.805H410.607V417.657H417.2V420.56H410.607V434.24C410.607 435.2 410.84 435.912 411.305 436.377C411.77 436.842 412.37 437.075 413.105 437.075C413.525 437.075 413.885 437.022 414.185 436.917C414.5 436.797 414.77 436.67 414.995 436.535C415.22 436.4 415.407 436.28 415.557 436.175C415.722 436.055 415.865 435.995 415.985 435.995C416.195 435.995 416.382 436.122 416.547 436.377L417.717 438.29C417.027 438.935 416.195 439.445 415.22 439.82C414.245 440.18 413.24 440.36 412.205 440.36ZM433.688 429.74C431.843 429.8 430.268 429.95 428.963 430.19C427.673 430.415 426.615 430.715 425.79 431.09C424.98 431.465 424.388 431.907 424.013 432.417C423.653 432.927 423.473 433.497 423.473 434.127C423.473 434.727 423.57 435.245 423.765 435.68C423.96 436.115 424.223 436.475 424.553 436.76C424.898 437.03 425.295 437.232 425.745 437.367C426.21 437.487 426.705 437.547 427.23 437.547C427.935 437.547 428.58 437.48 429.165 437.345C429.75 437.195 430.298 436.985 430.808 436.715C431.333 436.445 431.828 436.122 432.293 435.747C432.773 435.372 433.238 434.945 433.688 434.465V429.74ZM420.75 420.425C422.01 419.21 423.368 418.302 424.823 417.702C426.278 417.102 427.89 416.802 429.66 416.802C430.935 416.802 432.068 417.012 433.058 417.432C434.048 417.852 434.88 418.437 435.555 419.187C436.23 419.937 436.74 420.845 437.085 421.91C437.43 422.975 437.603 424.145 437.603 425.42V440H435.825C435.435 440 435.135 439.94 434.925 439.82C434.715 439.685 434.55 439.43 434.43 439.055L433.98 436.895C433.38 437.45 432.795 437.945 432.225 438.38C431.655 438.8 431.055 439.16 430.425 439.46C429.795 439.745 429.12 439.962 428.4 440.113C427.695 440.278 426.908 440.36 426.038 440.36C425.153 440.36 424.32 440.24 423.54 440C422.76 439.745 422.078 439.37 421.493 438.875C420.923 438.38 420.465 437.757 420.12 437.007C419.79 436.242 419.625 435.342 419.625 434.307C419.625 433.407 419.873 432.545 420.368 431.72C420.863 430.88 421.665 430.137 422.775 429.492C423.885 428.847 425.333 428.322 427.118 427.917C428.903 427.498 431.093 427.257 433.688 427.197V425.42C433.688 423.65 433.305 422.315 432.54 421.415C431.775 420.5 430.658 420.042 429.188 420.042C428.198 420.042 427.365 420.17 426.69 420.425C426.03 420.665 425.453 420.942 424.958 421.257C424.478 421.557 424.058 421.835 423.698 422.09C423.353 422.33 423.008 422.45 422.663 422.45C422.393 422.45 422.16 422.382 421.965 422.247C421.77 422.097 421.605 421.917 421.47 421.707L420.75 420.425ZM447.731 434.51C448.466 435.5 449.268 436.197 450.138 436.602C451.023 437.007 451.991 437.21 453.041 437.21C455.186 437.21 456.828 436.452 457.968 434.937C459.108 433.422 459.678 431.165 459.678 428.165C459.678 425.375 459.168 423.327 458.148 422.022C457.143 420.702 455.703 420.042 453.828 420.042C452.523 420.042 451.383 420.342 450.408 420.942C449.448 421.542 448.556 422.39 447.731 423.485V434.51ZM447.731 420.492C448.691 419.382 449.771 418.497 450.971 417.837C452.186 417.177 453.581 416.847 455.156 416.847C456.491 416.847 457.691 417.102 458.756 417.612C459.836 418.122 460.751 418.865 461.501 419.84C462.251 420.8 462.821 421.97 463.211 423.35C463.616 424.73 463.818 426.282 463.818 428.007C463.818 429.852 463.593 431.532 463.143 433.047C462.693 434.562 462.041 435.86 461.186 436.94C460.346 438.005 459.318 438.837 458.103 439.437C456.888 440.023 455.523 440.315 454.008 440.315C452.508 440.315 451.241 440.037 450.206 439.482C449.186 438.912 448.293 438.11 447.528 437.075L447.326 439.145C447.206 439.715 446.861 440 446.291 440H443.703V406.857H447.731V420.492ZM473.024 406.857V440H469.019V406.857H473.024ZM494.774 426.117C494.774 425.187 494.639 424.34 494.369 423.575C494.114 422.795 493.731 422.127 493.221 421.572C492.726 421.002 492.119 420.567 491.399 420.267C490.679 419.952 489.861 419.795 488.946 419.795C487.026 419.795 485.504 420.357 484.379 421.482C483.269 422.592 482.579 424.137 482.309 426.117H494.774ZM498.014 436.805C497.519 437.405 496.926 437.93 496.236 438.38C495.546 438.815 494.804 439.175 494.009 439.46C493.229 439.745 492.419 439.955 491.579 440.09C490.739 440.24 489.906 440.315 489.081 440.315C487.506 440.315 486.051 440.052 484.716 439.527C483.396 438.987 482.249 438.207 481.274 437.188C480.314 436.152 479.564 434.877 479.024 433.362C478.484 431.847 478.214 430.107 478.214 428.142C478.214 426.552 478.454 425.067 478.934 423.687C479.429 422.307 480.134 421.115 481.049 420.11C481.964 419.09 483.081 418.295 484.401 417.725C485.721 417.14 487.206 416.847 488.856 416.847C490.221 416.847 491.481 417.08 492.636 417.545C493.806 417.995 494.811 418.655 495.651 419.525C496.506 420.38 497.174 421.445 497.654 422.72C498.134 423.98 498.374 425.42 498.374 427.04C498.374 427.67 498.306 428.09 498.171 428.3C498.036 428.51 497.781 428.615 497.406 428.615H482.174C482.219 430.055 482.414 431.307 482.759 432.372C483.119 433.437 483.614 434.33 484.244 435.05C484.874 435.755 485.624 436.287 486.494 436.647C487.364 436.992 488.339 437.165 489.419 437.165C490.424 437.165 491.286 437.052 492.006 436.827C492.741 436.587 493.371 436.332 493.896 436.062C494.421 435.792 494.856 435.545 495.201 435.32C495.561 435.08 495.869 434.96 496.124 434.96C496.454 434.96 496.709 435.087 496.889 435.342L498.014 436.805ZM516.568 420.965C516.388 421.295 516.111 421.46 515.736 421.46C515.511 421.46 515.256 421.377 514.971 421.212C514.686 421.047 514.333 420.867 513.913 420.672C513.508 420.462 513.021 420.275 512.451 420.11C511.881 419.93 511.206 419.84 510.426 419.84C509.751 419.84 509.143 419.93 508.603 420.11C508.063 420.275 507.598 420.507 507.208 420.807C506.833 421.107 506.541 421.46 506.331 421.865C506.136 422.255 506.038 422.682 506.038 423.147C506.038 423.732 506.203 424.22 506.533 424.61C506.878 425 507.328 425.337 507.883 425.622C508.438 425.907 509.068 426.162 509.773 426.387C510.478 426.597 511.198 426.83 511.933 427.085C512.683 427.325 513.411 427.595 514.116 427.895C514.821 428.195 515.451 428.57 516.006 429.02C516.561 429.47 517.003 430.025 517.333 430.685C517.678 431.33 517.851 432.11 517.851 433.025C517.851 434.075 517.663 435.05 517.288 435.95C516.913 436.835 516.358 437.607 515.623 438.267C514.888 438.912 513.988 439.422 512.923 439.797C511.858 440.173 510.628 440.36 509.233 440.36C507.643 440.36 506.203 440.105 504.913 439.595C503.623 439.07 502.528 438.402 501.628 437.592L502.573 436.062C502.693 435.867 502.836 435.717 503.001 435.612C503.166 435.507 503.376 435.455 503.631 435.455C503.901 435.455 504.186 435.56 504.486 435.77C504.786 435.98 505.146 436.212 505.566 436.467C506.001 436.722 506.526 436.955 507.141 437.165C507.756 437.375 508.521 437.48 509.436 437.48C510.216 437.48 510.898 437.382 511.483 437.188C512.068 436.977 512.556 436.7 512.946 436.355C513.336 436.01 513.621 435.612 513.801 435.162C513.996 434.712 514.093 434.232 514.093 433.722C514.093 433.092 513.921 432.575 513.576 432.17C513.246 431.75 512.803 431.397 512.248 431.112C511.693 430.812 511.056 430.557 510.336 430.347C509.631 430.122 508.903 429.89 508.153 429.65C507.418 429.41 506.691 429.14 505.971 428.84C505.266 428.525 504.636 428.135 504.081 427.67C503.526 427.205 503.076 426.635 502.731 425.96C502.401 425.27 502.236 424.437 502.236 423.462C502.236 422.592 502.416 421.76 502.776 420.965C503.136 420.155 503.661 419.45 504.351 418.85C505.041 418.235 505.888 417.747 506.893 417.388C507.898 417.027 509.046 416.847 510.336 416.847C511.836 416.847 513.178 417.087 514.363 417.567C515.563 418.032 516.598 418.677 517.468 419.502L516.568 420.965Z" fill="black"/>
<path d="M370.982 65.1525V78H366.617V65.1525L354.804 45.7575H358.629C359.019 45.7575 359.327 45.855 359.552 46.05C359.777 46.23 359.972 46.47 360.137 46.77L367.517 59.3025C367.787 59.8275 368.034 60.3225 368.259 60.7875C368.484 61.2375 368.679 61.695 368.844 62.16C369.009 61.695 369.197 61.2375 369.407 60.7875C369.617 60.3225 369.849 59.8275 370.104 59.3025L377.462 46.77C377.597 46.515 377.784 46.2825 378.024 46.0725C378.264 45.8625 378.572 45.7575 378.947 45.7575H382.794L370.982 65.1525ZM390.243 55.2075V78H386.238V55.2075H390.243ZM391.098 48.0525C391.098 48.4425 391.015 48.81 390.85 49.155C390.7 49.485 390.49 49.785 390.22 50.055C389.965 50.31 389.658 50.5125 389.298 50.6625C388.953 50.8125 388.585 50.8875 388.195 50.8875C387.805 50.8875 387.438 50.8125 387.093 50.6625C386.763 50.5125 386.47 50.31 386.215 50.055C385.96 49.785 385.758 49.485 385.608 49.155C385.458 48.81 385.383 48.4425 385.383 48.0525C385.383 47.6625 385.458 47.295 385.608 46.95C385.758 46.59 385.96 46.2825 386.215 46.0275C386.47 45.7575 386.763 45.5475 387.093 45.3975C387.438 45.2475 387.805 45.1725 388.195 45.1725C388.585 45.1725 388.953 45.2475 389.298 45.3975C389.658 45.5475 389.965 45.7575 390.22 46.0275C390.49 46.2825 390.7 46.59 390.85 46.95C391.015 47.295 391.098 47.6625 391.098 48.0525ZM412.078 64.1175C412.078 63.1875 411.943 62.34 411.673 61.575C411.418 60.795 411.036 60.1275 410.526 59.5725C410.031 59.0025 409.423 58.5675 408.703 58.2675C407.983 57.9525 407.166 57.795 406.251 57.795C404.331 57.795 402.808 58.3575 401.683 59.4825C400.573 60.5925 399.883 62.1375 399.613 64.1175H412.078ZM415.318 74.805C414.823 75.405 414.231 75.93 413.541 76.38C412.851 76.815 412.108 77.175 411.313 77.46C410.533 77.745 409.723 77.955 408.883 78.09C408.043 78.24 407.211 78.315 406.386 78.315C404.811 78.315 403.356 78.0525 402.021 77.5275C400.701 76.9875 399.553 76.2075 398.578 75.1875C397.618 74.1525 396.868 72.8775 396.328 71.3625C395.788 69.8475 395.518 68.1075 395.518 66.1425C395.518 64.5525 395.758 63.0675 396.238 61.6875C396.733 60.3075 397.438 59.115 398.353 58.11C399.268 57.09 400.386 56.295 401.706 55.725C403.026 55.14 404.511 54.8475 406.161 54.8475C407.526 54.8475 408.786 55.08 409.941 55.545C411.111 55.995 412.116 56.655 412.956 57.525C413.811 58.38 414.478 59.445 414.958 60.72C415.438 61.98 415.678 63.42 415.678 65.04C415.678 65.67 415.611 66.09 415.476 66.3C415.341 66.51 415.086 66.615 414.711 66.615H399.478C399.523 68.055 399.718 69.3075 400.063 70.3725C400.423 71.4375 400.918 72.33 401.548 73.05C402.178 73.755 402.928 74.2875 403.798 74.6475C404.668 74.9925 405.643 75.165 406.723 75.165C407.728 75.165 408.591 75.0525 409.311 74.8275C410.046 74.5875 410.676 74.3325 411.201 74.0625C411.726 73.7925 412.161 73.545 412.506 73.32C412.866 73.08 413.173 72.96 413.428 72.96C413.758 72.96 414.013 73.0875 414.193 73.3425L415.318 74.805ZM424.738 44.8575V78H420.733V44.8575H424.738ZM446.083 60.63C445.333 59.625 444.523 58.9275 443.653 58.5375C442.783 58.1325 441.808 57.93 440.728 57.93C438.613 57.93 436.985 58.6875 435.845 60.2025C434.705 61.7175 434.135 63.8775 434.135 66.6825C434.135 68.1675 434.263 69.4425 434.518 70.5075C434.773 71.5575 435.148 72.4275 435.643 73.1175C436.138 73.7925 436.745 74.2875 437.465 74.6025C438.185 74.9175 439.003 75.075 439.918 75.075C441.238 75.075 442.385 74.775 443.36 74.175C444.35 73.575 445.258 72.7275 446.083 71.6325V60.63ZM450.088 44.8575V78H447.703C447.133 78 446.773 77.7225 446.623 77.1675L446.263 74.4C445.288 75.57 444.178 76.515 442.933 77.235C441.688 77.955 440.248 78.315 438.613 78.315C437.308 78.315 436.123 78.0675 435.058 77.5725C433.993 77.0625 433.085 76.32 432.335 75.345C431.585 74.37 431.008 73.155 430.603 71.7C430.198 70.245 429.995 68.5725 429.995 66.6825C429.995 65.0025 430.22 63.4425 430.67 62.0025C431.12 60.5475 431.765 59.2875 432.605 58.2225C433.445 57.1575 434.473 56.325 435.688 55.725C436.918 55.11 438.298 54.8025 439.828 54.8025C441.223 54.8025 442.415 55.0425 443.405 55.5225C444.41 55.9875 445.303 56.64 446.083 57.48V44.8575H450.088Z" fill="black"/>
<path d="M57.1508 182H53.3033C52.9733 182 52.7108 181.917 52.5158 181.752C52.3358 181.572 52.1858 181.377 52.0658 181.167L46.3283 172.235C46.2683 172.445 46.2008 172.655 46.1258 172.865C46.0658 173.06 45.9758 173.24 45.8558 173.405L40.5458 181.167C40.3958 181.377 40.2308 181.572 40.0508 181.752C39.8858 181.917 39.6533 182 39.3533 182H35.7758L43.7633 170.3L36.0908 159.207H39.9383C40.2683 159.207 40.5083 159.26 40.6583 159.365C40.8083 159.47 40.9433 159.62 41.0633 159.815L46.6658 168.365C46.7858 167.93 46.9733 167.51 47.2283 167.105L52.1333 159.905C52.2683 159.695 52.4108 159.53 52.5608 159.41C52.7258 159.275 52.9208 159.207 53.1458 159.207H56.8358L49.1633 170.097L57.1508 182ZM79.5914 153.425H69.1514V182H64.8089V153.425H54.3464V149.757H79.5914V153.425ZM87.5451 158.847C89.2101 158.847 90.7101 159.125 92.0451 159.68C93.3801 160.235 94.5201 161.022 95.4651 162.042C96.4101 163.062 97.1301 164.3 97.6251 165.755C98.1351 167.195 98.3901 168.807 98.3901 170.592C98.3901 172.392 98.1351 174.012 97.6251 175.452C97.1301 176.892 96.4101 178.122 95.4651 179.142C94.5201 180.162 93.3801 180.95 92.0451 181.505C90.7101 182.045 89.2101 182.315 87.5451 182.315C85.8651 182.315 84.3501 182.045 83.0001 181.505C81.6651 180.95 80.5251 180.162 79.5801 179.142C78.6351 178.122 77.9076 176.892 77.3976 175.452C76.9026 174.012 76.6551 172.392 76.6551 170.592C76.6551 168.807 76.9026 167.195 77.3976 165.755C77.9076 164.3 78.6351 163.062 79.5801 162.042C80.5251 161.022 81.6651 160.235 83.0001 159.68C84.3501 159.125 85.8651 158.847 87.5451 158.847ZM87.5451 179.188C89.7951 179.188 91.4751 178.437 92.5851 176.937C93.6951 175.422 94.2501 173.315 94.2501 170.615C94.2501 167.9 93.6951 165.785 92.5851 164.27C91.4751 162.755 89.7951 161.997 87.5451 161.997C86.4051 161.997 85.4076 162.192 84.5526 162.582C83.7126 162.972 83.0076 163.535 82.4376 164.27C81.8826 165.005 81.4626 165.912 81.1776 166.992C80.9076 168.057 80.7726 169.265 80.7726 170.615C80.7726 173.315 81.3276 175.422 82.4376 176.937C83.5626 178.437 85.2651 179.188 87.5451 179.188ZM107.497 148.857V168.365H108.532C108.832 168.365 109.08 168.327 109.275 168.252C109.485 168.162 109.702 167.99 109.927 167.735L117.127 160.017C117.337 159.762 117.555 159.567 117.78 159.432C118.02 159.282 118.335 159.207 118.725 159.207H122.347L113.955 168.14C113.55 168.65 113.115 169.047 112.65 169.332C112.92 169.512 113.16 169.722 113.37 169.962C113.595 170.187 113.805 170.45 114 170.75L122.91 182H119.332C118.987 182 118.687 181.947 118.432 181.842C118.192 181.722 117.982 181.512 117.802 181.212L110.31 171.875C110.085 171.56 109.86 171.357 109.635 171.267C109.425 171.162 109.095 171.11 108.645 171.11H107.497V182H103.47V148.857H107.497ZM140.302 168.117C140.302 167.187 140.167 166.34 139.897 165.575C139.642 164.795 139.26 164.127 138.75 163.572C138.255 163.002 137.647 162.567 136.927 162.267C136.207 161.952 135.39 161.795 134.475 161.795C132.555 161.795 131.032 162.357 129.907 163.482C128.797 164.592 128.107 166.137 127.837 168.117H140.302ZM143.542 178.805C143.047 179.405 142.455 179.93 141.765 180.38C141.075 180.815 140.332 181.175 139.537 181.46C138.757 181.745 137.947 181.955 137.107 182.09C136.267 182.24 135.435 182.315 134.61 182.315C133.035 182.315 131.58 182.052 130.245 181.527C128.925 180.987 127.777 180.207 126.802 179.188C125.842 178.152 125.092 176.877 124.552 175.362C124.012 173.847 123.742 172.107 123.742 170.142C123.742 168.552 123.982 167.067 124.462 165.687C124.957 164.307 125.662 163.115 126.577 162.11C127.492 161.09 128.61 160.295 129.93 159.725C131.25 159.14 132.735 158.847 134.385 158.847C135.75 158.847 137.01 159.08 138.165 159.545C139.335 159.995 140.34 160.655 141.18 161.525C142.035 162.38 142.702 163.445 143.182 164.72C143.662 165.98 143.902 167.42 143.902 169.04C143.902 169.67 143.835 170.09 143.7 170.3C143.565 170.51 143.31 170.615 142.935 170.615H127.702C127.747 172.055 127.942 173.307 128.287 174.372C128.647 175.437 129.142 176.33 129.772 177.05C130.402 177.755 131.152 178.287 132.022 178.647C132.892 178.992 133.867 179.165 134.947 179.165C135.952 179.165 136.815 179.052 137.535 178.827C138.27 178.587 138.9 178.332 139.425 178.062C139.95 177.792 140.385 177.545 140.73 177.32C141.09 177.08 141.397 176.96 141.652 176.96C141.982 176.96 142.237 177.087 142.417 177.342L143.542 178.805ZM152.601 162.515C153.096 161.96 153.621 161.457 154.176 161.007C154.731 160.557 155.316 160.175 155.931 159.86C156.561 159.53 157.221 159.282 157.911 159.117C158.616 158.937 159.374 158.847 160.184 158.847C161.429 158.847 162.524 159.057 163.469 159.477C164.429 159.882 165.224 160.467 165.854 161.232C166.499 161.982 166.986 162.89 167.316 163.955C167.646 165.02 167.811 166.197 167.811 167.487V182H163.784V167.487C163.784 165.762 163.386 164.427 162.591 163.482C161.811 162.522 160.619 162.042 159.014 162.042C157.829 162.042 156.719 162.327 155.684 162.897C154.664 163.467 153.719 164.24 152.849 165.215V182H148.821V159.207H151.229C151.799 159.207 152.151 159.485 152.286 160.04L152.601 162.515Z" fill="black"/>
</svg>
