<svg width="300" height="78" viewBox="0 0 300 78" fill="none" xmlns="http://www.w3.org/2000/svg">
<path d="M126.676 19.9324V28.9836H114.962V57.1488H105.911V28.9836H94.1979V19.9324H126.676ZM150.088 19.4C139.599 19.4 131.027 27.972 131.027 38.4607C131.027 49.0027 139.599 57.5215 150.088 57.5215C160.63 57.5215 169.149 49.0027 169.149 38.4607C169.149 27.972 160.63 19.4 150.088 19.4ZM150.088 48.4703C144.604 48.4703 140.079 43.998 140.079 38.4607C140.079 32.9235 144.604 28.4512 150.088 28.4512C155.625 28.4512 160.098 32.9235 160.098 38.4607C160.098 43.998 155.625 48.4703 150.088 48.4703ZM206.79 19.8792H194.917L185.227 31.3263V20.0389H176.176V57.1488H185.227V45.329L187.783 42.3474L197.473 57.1488H208.281L193.906 35.1597L206.79 19.8792ZM214.201 57.0423H243.325V47.9911H223.253V43.0396H238.959V33.9884H223.253V29.0369H243.325V19.9324H214.201V57.0423ZM275.886 41.9215L261.351 19.8792H251.395V57.0423H260.446V35L275.035 57.1488H284.938V20.0389H275.886V41.9215Z" fill="#27153E"/>
<path fill-rule="evenodd" clip-rule="evenodd" d="M69.6167 14.5573C69.6167 14.4609 69.5219 14.3682 69.5219 14.3682L69.4308 14.2718C69.4308 14.2119 69.3942 14.1892 69.3447 14.1585C69.3145 14.1396 69.2794 14.1178 69.2448 14.0826L69.0552 13.8898L54.3999 3.44835C53.9331 3.07014 53.1856 3.07014 52.7188 3.44835L38.7161 13.1295L25.1838 3.35533C24.7171 2.97712 23.9695 2.97712 23.5027 3.35533L8.84748 13.7968C8.79961 13.7968 8.77591 13.8214 8.75244 13.8457C8.72943 13.8696 8.70664 13.8932 8.6615 13.8932C8.6615 13.8932 8.56669 13.8932 8.56669 13.9896C8.52016 14.0369 8.47451 14.1066 8.42888 14.1762C8.38153 14.2484 8.33419 14.3206 8.28591 14.3678V14.4642C8.1911 14.6533 8.1911 14.8424 8.1911 15.0353V62.7823C8.1911 63.2569 8.47188 63.7315 8.84383 64.017L23.4991 74.4585H23.5939L23.6887 74.5549H23.7835C23.9695 74.6513 24.1555 74.744 24.4363 74.744C24.6263 74.744 24.7294 74.6999 24.8633 74.6426C24.9273 74.6153 24.9982 74.5849 25.089 74.5549H25.1838C25.1838 74.5549 25.2786 74.5549 25.2786 74.4585H25.3734L39.1867 64.5809L53.0036 74.4509H53.0948L53.1896 74.5473H53.2844C53.4704 74.6437 53.6564 74.7364 53.9371 74.7364C54.0698 74.7364 54.2025 74.6874 54.3695 74.6256L54.3698 74.6255C54.4369 74.6007 54.5095 74.5739 54.5899 74.5473H54.6847C54.6847 74.5473 54.7795 74.5473 54.7795 74.4509H54.8743L69.5296 64.0094L69.6244 63.913L69.6167 14.5573ZM11.1808 17.9722L21.7305 25.4695L11.1808 32.9669V17.9722ZM11.1808 62.0191L22.8498 70.2766V47.1136L18.5541 44.0769L11.1808 38.8561V62.0191ZM52.1601 70.3731L40.4912 62.1156V38.8557L52.1601 47.2097V70.3731ZM65.6047 35.9152L52.7212 26.7085H52.7207C52.3451 26.423 52.0643 25.9484 52.0643 25.4737C52.0643 24.9991 52.3451 24.5245 52.717 24.239L65.6005 15.0323L53.56 6.48922L39.5572 16.1704C39.0905 16.5486 38.3429 16.5486 37.8762 16.1704L24.3402 6.48542L12.2997 15.0285L25.1831 24.2352C25.5551 24.5207 25.8359 24.9953 25.8359 25.4699C25.8359 25.9446 25.5551 26.4192 25.1831 26.7047L12.2997 35.9114L23.6877 44.0763L24.3404 44.5509L37.9679 34.6809H38.0627C38.0627 34.5845 38.1575 34.5845 38.1575 34.5845H38.2413C38.2413 34.4881 38.3362 34.4881 38.3362 34.4881H38.431H38.6169H38.8029H38.8977H38.9925H39.1785H39.3645H39.4593C39.4593 34.5845 39.5541 34.5845 39.5541 34.5845H39.6489C39.6489 34.6809 39.7437 34.6809 39.7437 34.6809H39.8385L53.564 44.5547L54.2167 44.0801L65.6047 35.9152Z" fill="url(#paint0_linear)"/>
<defs>
<linearGradient id="paint0_linear" x1="38.9077" y1="3.07167" x2="38.9077" y2="74.744" gradientUnits="userSpaceOnUse">
<stop stop-color="#943BF3"/>
<stop offset="1" stop-color="#5327EE"/>
</linearGradient>
</defs>
</svg>
